<svg xmlns="http://www.w3.org/2000/svg" width="152" height="152"><path fill="#5C5378" d="M150 33H2V11h148v22zM4 31h144V13H4v18zM74 60H2V38h72v22zM4 58h68V40H4v18zM150 60H78V38h72v22zm-70-2h68V40H80v18zM36 87H2V65h34v22zM4 85h30V67H4v18zM48.7 114H2V92h46.7v22zM4 112h42.7V94H4v18zM99.3 114H52.7V92h46.7v22zm-44.6-2h42.7V94H54.7v18zM150 113.8h-46.7v-22H150v22zm-44.7-2H148v-18h-42.7v18zM74 87H40V65h34v22zm-32-2h30V67H42v18zM112 87H78V65h34v22zm-32-2h30V67H80v18zM150 87h-34V65h34v22zm-32-2h30V67h-30v18zM112 140.9H2v-22h110v22zm-108-2h106v-18H4v18zM150 141h-34v-22h34v22zm-32-2h30v-18h-30v18z"/></svg>