<svg xmlns="http://www.w3.org/2000/svg" width="152" height="152"><path fill="#5C5378" d="M41.5 96.5h19.9v5.7H41.5z" opacity=".7"/><path fill="#5C5378" d="M116.1 73.1H148v68.1h-31.9z" opacity=".25"/><path fill="#5C5378" d="M26.8 11h100.6v8.4H26.8z" opacity=".7"/><path fill="#5C5378" d="M12.3 23h129.6v2.8H12.3z" opacity=".3"/><path fill="#5C5378" d="M41.6 74.5h38.8v2.8H41.6zM118.6 76.5h26.8v2.8h-26.8z" opacity=".7"/><path fill="#5C5378" d="M22.6 27h109v2.8h-109zM41.5 79.5h65.3v2.8H41.5zM118.5 81.5h26.9v2.8h-26.9zM118.5 85.5h26.9v2.8h-26.9zM118.5 89.5h14.9v2.8h-14.9z" opacity=".3"/><path fill="#5C5378" d="M118.6 98.5h26.8v2.8h-26.8z" opacity=".7"/><path fill="#5C5378" d="M118.5 103.5h26.9v2.8h-26.9zM118.5 107.5h26.9v2.8h-26.9zM118.5 111.5h14.9v2.8h-14.9zM41.5 83.5h65.3v2.8H41.5zM41.5 87.5h65.3v2.8H41.5zM41.5 91.5h43.2v2.8H41.5z" opacity=".3"/><path fill="#5C5378" d="M4 72.1h31.5v31.5H4zM0 34.9h152v31.5H0z"/><path fill="#5C5378" d="M41.5 134.1h19.9v5.7H41.5zM41.6 112.1h38.8v2.8H41.6z" opacity=".7"/><path fill="#5C5378" d="M41.5 117.1h65.3v2.8H41.5zM41.5 121.1h65.3v2.8H41.5zM41.5 125.1h65.3v2.8H41.5zM41.5 129.1h43.2v2.8H41.5z" opacity=".3"/><path fill="#F4F9ED" d="M44.9 135.8H58v2.2H44.9z" opacity=".3"/><path fill="#5C5378" d="M118.5 131.1h26.9v5.7h-26.9z" opacity=".7"/><path fill="#F4F9ED" d="M123.1 132.8h17.6v2.2h-17.6zM44.9 98.3H58v2.2H44.9z" opacity=".3"/><path fill="#5C5378" d="M4 109.8h31.5v31.5H4z"/></svg>