<svg xmlns="http://www.w3.org/2000/svg" width="152" height="152"><path fill="#5C5378" d="M33.2 109c-.3.6-.7 1.1-1.1 1.6l34.6 23.8c.3-.6.7-1.1 1.1-1.6L33.2 109zM76.3 24.4c-6.6 0-12-5.4-12-12s5.4-12 12-12 12 5.4 12 12-5.4 12-12 12zm0-22c-5.5 0-10 4.5-10 10s4.5 10 10 10 10-4.5 10-10-4.5-10-10-10zM129 60.6c-6.6 0-12-5.4-12-12s5.4-12 12-12 12 5.4 12 12-5.4 12-12 12zm0-22c-5.5 0-10 4.5-10 10s4.5 10 10 10 10-4.5 10-10-4.5-10-10-10zM129 115.6c-6.6 0-12-5.4-12-12s5.4-12 12-12 12 5.4 12 12-5.4 12-12 12zm0-22c-5.5 0-10 4.5-10 10s4.5 10 10 10 10-4.5 10-10-4.5-10-10-10zM23.6 115.6c-6.6 0-12-5.4-12-12s5.4-12 12-12 12 5.4 12 12-5.4 12-12 12zm0-22c-5.5 0-10 4.5-10 10s4.5 10 10 10 10-4.5 10-10-4.5-10-10-10zM23.6 60.6c-6.6 0-12-5.4-12-12s5.4-12 12-12 12 5.4 12 12-5.4 12-12 12zm0-22c-5.5 0-10 4.5-10 10s4.5 10 10 10 10-4.5 10-10-4.5-10-10-10zM76.3 151.8c-6.6 0-12-5.4-12-12s5.4-12 12-12 12 5.4 12 12-5.4 12-12 12zm0-22c-5.5 0-10 4.5-10 10s4.5 10 10 10 10-4.5 10-10-4.5-10-10-10zM23.6 59.6c-.3 0-.7 0-1-.1v33.1c.3 0 .7-.1 1-.1s.7 0 1 .1v-33c-.3 0-.7 0-1 0zM67.1 17.5l-35 24.1c.4.5.8 1.1 1.1 1.6l35-24.1c-.4-.4-.8-1-1.1-1.6zM120.5 41.6L86.3 18.1c-.3.6-.7 1.1-1.2 1.6l34.3 23.6c.3-.7.7-1.2 1.1-1.7zM128.9 92.6c.3 0 .7 0 1 .1V59.6c-.3 0-.7.1-1 .1-.3 0-.7 0-1-.1v33.1c.4-.1.7-.1 1-.1zM119.4 109l-34.6 23.8c.4.5.8 1.1 1.1 1.6l34.6-23.8c-.4-.5-.8-1-1.1-1.6z"/></svg>