<svg xmlns="http://www.w3.org/2000/svg" width="153" height="153"><style type="text/css">.st0{fill:none;stroke:#D2D2D2;stroke-miterlimit:10;} .st1{fill:#5D5479;} .st2{fill:#FFFFFF;stroke:#D2D2D2;stroke-miterlimit:10;} .st3{fill:none;stroke:#5D5479;stroke-width:2;stroke-miterlimit:10;} .st4{fill:none;stroke:#5D5479;stroke-miterlimit:10;} .st5{opacity:0.7;fill:#5D5479;enable-background:new ;} .st6{opacity:0.25;fill:#5D5479;enable-background:new ;} .st7{opacity:0.3;fill:#5D5479;enable-background:new ;} .st8{opacity:0.3;fill:#F4F9EE;enable-background:new ;} .st9{fill:#0A82C5;} .st10{fill:#C03527;} .st11{fill:#5B5377;} .st12{fill:#5D5D5D;} .st13{fill:#ADADAD;} .st14{fill:#DCDBDB;} .st15{fill:#F4F4F4;} .st16{display:none;fill:none;} .st17{fill:#5C5D5D;} .st18{fill:#1A1A1B;} .st19{fill:#ECECEC;} .st20{fill:#464646;} .st21{fill:none;stroke:#ECECEC;stroke-miterlimit:10;} .st22{fill:#272626;} .st23{fill:#FFFFFF;}</style><path d="M102.6 103.6c-.1.1-.2.2-.3.3M49.6 102.7c-9.1-7.7-14.8-19.2-14.8-32 0-23.1 18.8-41.9 41.9-41.9s41.9 18.8 41.9 41.9c0 13.3-6.2 25.2-15.9 32.9M96.2 127.5l-37.8 9.6M96.2 133.6l-37.8 9.7M66.2 147.8s12.8 9.8 22.2 0M58.4 131l37.7-9.7c-1.8-12.6 8.5-19.4 8.5-19.4M48.7 101.9s7.4 5.3 9.7 22M72.8 119.2S72.1 94 66.2 87c0 0 5.9-1.8 11.2 5.9M81.8 119.2S82.5 94 88.4 87c0 0-5.9-1.8-11.2 5.9" class="st3"/><path d="M76.5 20.5V.8M46.9 30.1L35.4 14.2M28.7 55.3L10 49.2M28.7 86.4l-18.7 6M124.3 86.4l18.7 6M124.3 55.3l18.7-6.1M106.1 30.1l11.5-15.9" class="st4"/></svg>