<svg xmlns="http://www.w3.org/2000/svg" width="152" height="152"><path fill="#5C5378" d="M63 91.4c-3.8 0-6.9-3.1-6.9-6.9s3.1-6.9 6.9-6.9 6.9 3.1 6.9 6.9-3.1 6.9-6.9 6.9zm0-11.8c-2.7 0-4.9 2.2-4.9 4.9s2.2 4.9 4.9 4.9 4.9-2.2 4.9-4.9-2.2-4.9-4.9-4.9zM34.9 140c-3.8 0-6.9-3.1-6.9-6.9s3.1-6.9 6.9-6.9 6.9 3.1 6.9 6.9-3.1 6.9-6.9 6.9zm0-11.7c-2.7 0-4.9 2.2-4.9 4.9s2.2 4.9 4.9 4.9 4.9-2.2 4.9-4.9-2.2-4.9-4.9-4.9zM6.8 120.7c-3.8 0-6.9-3.1-6.9-6.9s3.1-6.9 6.9-6.9 6.9 3.1 6.9 6.9-3.1 6.9-6.9 6.9zm0-11.8c-2.7 0-4.9 2.2-4.9 4.9s2.2 4.9 4.9 4.9 4.9-2.2 4.9-4.9-2.2-4.9-4.9-4.9zM6.8 91.4C3 91.4 0 88.3 0 84.5s3.1-6.9 6.9-6.9 6.9 3.1 6.9 6.9-3.2 6.9-7 6.9zm0-11.8c-2.7 0-4.9 2.2-4.9 4.9s2.2 4.9 4.9 4.9 4.9-2.2 4.9-4.9-2.2-4.9-4.9-4.9zM91.1 140c-3.8 0-6.9-3.1-6.9-6.9s3.1-6.9 6.9-6.9 6.9 3.1 6.9 6.9-3.1 6.9-6.9 6.9zm0-11.7c-2.7 0-4.9 2.2-4.9 4.9s2.2 4.9 4.9 4.9 4.9-2.2 4.9-4.9-2.2-4.9-4.9-4.9zM34.9 72.1c-3.8 0-6.9-3.1-6.9-6.9 0-3.8 3.1-6.9 6.9-6.9s6.9 3.1 6.9 6.9c0 3.8-3.1 6.9-6.9 6.9zm0-11.8c-2.7 0-4.9 2.2-4.9 4.9s2.2 4.9 4.9 4.9 4.9-2.2 4.9-4.9-2.2-4.9-4.9-4.9zM58.8 80.4L40.2 67.6c-.3.6-.7 1.2-1.1 1.6L57.7 82c.3-.6.7-1.1 1.1-1.6zM63 120.7c-3.8 0-6.9-3.1-6.9-6.9s3.1-6.9 6.9-6.9 6.9 3.1 6.9 6.9-3.1 6.9-6.9 6.9zm0-11.8c-2.7 0-4.9 2.2-4.9 4.9s2.2 4.9 4.9 4.9 4.9-2.2 4.9-4.9-2.2-4.9-4.9-4.9zM7 90.2c-.4 0-.8 0-1.1-.1v18c.3-.1.7-.1 1-.1s.7 0 1 .1v-18c-.4.1-.6.1-.9.1zM12.2 82l18.5-12.7c-.5-.5-.8-1-1.1-1.6L11 80.4c.5.5.9 1 1.2 1.6zM62.9 108c.4 0 .7 0 1.1.1v-18c-.4.1-.7.1-1.1.1-.3 0-.6 0-.9-.1V108c.3.1.6 0 .9 0zM40.2 130.7l18.7-12.8c-.5-.5-.9-1-1.1-1.6L39 129.1c.5.5.9 1 1.2 1.6zM30.8 129.1l-18.7-12.9c-.3.6-.7 1.2-1.1 1.6l18.7 12.9c.3-.6.6-1.1 1.1-1.6zM87 129.1l-18.8-12.9c-.3.6-.7 1.2-1.1 1.7l18.8 12.9c.2-.7.6-1.2 1.1-1.7zM89 59.9c3.8 0 6.9 3.1 6.9 6.9 0 3.8-3.1 6.9-6.9 6.9s-6.9-3.1-6.9-6.9c0-3.8 3.1-6.9 6.9-6.9zm0 11.8c2.7 0 4.9-2.2 4.9-4.9s-2.2-4.9-4.9-4.9-4.9 2.2-4.9 4.9 2.2 4.9 4.9 4.9zM117 11.3c3.8 0 6.9 3.1 6.9 6.9s-3.1 6.9-6.9 6.9-6.9-3.1-6.9-6.9 3.2-6.9 6.9-6.9zm0 11.8c2.7 0 4.9-2.2 4.9-4.9s-2.2-4.9-4.9-4.9-4.9 2.2-4.9 4.9 2.3 4.9 4.9 4.9zM145.1 30.6c3.8 0 6.9 3.1 6.9 6.9s-3.1 6.9-6.9 6.9-6.9-3.1-6.9-6.9 3.1-6.9 6.9-6.9zm0 11.8c2.7 0 4.9-2.2 4.9-4.9s-2.2-4.9-4.9-4.9-4.9 2.2-4.9 4.9 2.3 4.9 4.9 4.9zM145.1 59.9c3.8 0 6.9 3.1 6.9 6.9 0 3.8-3.1 6.9-6.9 6.9s-6.9-3.1-6.9-6.9c.1-3.8 3.1-6.9 6.9-6.9zm0 11.8c2.7 0 4.9-2.2 4.9-4.9s-2.2-4.9-4.9-4.9-4.9 2.2-4.9 4.9 2.3 4.9 4.9 4.9zM60.9 11.3c3.8 0 6.9 3.1 6.9 6.9s-3.1 6.9-6.9 6.9S54 22 54 18.2s3.1-6.9 6.9-6.9zm0 11.8c2.7 0 4.9-2.2 4.9-4.9s-2.2-4.9-4.9-4.9-4.9 2.2-4.9 4.9 2.2 4.9 4.9 4.9zM117 79.3c3.8 0 6.9 3.1 6.9 6.9S120.8 93 117 93s-6.9-3.1-6.9-6.9 3.2-6.8 6.9-6.8zm0 11.7c2.7 0 4.9-2.2 4.9-4.9s-2.2-4.9-4.9-4.9-4.9 2.2-4.9 4.9 2.3 4.9 4.9 4.9zM93.1 70.9l18.6 12.8c.3-.6.7-1.2 1.1-1.6L94.3 69.3c-.3.6-.7 1.1-1.2 1.6zM89 30.6c3.8 0 6.9 3.1 6.9 6.9s-3.1 6.9-6.9 6.9-6.9-3.1-6.9-6.9 3.1-6.9 6.9-6.9zm0 11.8c2.7 0 4.9-2.2 4.9-4.9s-2.2-4.9-4.9-4.9-4.9 2.2-4.9 4.9 2.2 4.9 4.9 4.9zM145 61.1c.4 0 .8 0 1.1.1v-18c-.3.1-.7.1-1 .1s-.7 0-1-.1v18c.3-.1.6-.1.9-.1zM139.8 69.3L121.2 82c.5.5.8 1 1.1 1.6l18.5-12.8c-.3-.3-.7-.9-1-1.5zM89 43.3c-.4 0-.7 0-1.1-.1v18c.4-.1.7-.1 1.1-.1.3 0 .6 0 .9.1v-18c-.2 0-.5.1-.9.1zM111.8 20.6L93.1 33.4c.5.5.9 1 1.1 1.6l18.7-12.8c-.4-.4-.8-1-1.1-1.6zM121.2 22.2l18.7 12.9c.3-.6.7-1.2 1.1-1.6l-18.7-12.9c-.3.6-.7 1.2-1.1 1.6zM65 22.2l18.8 12.9c.3-.6.7-1.2 1.1-1.7L66.1 20.6c-.3.6-.7 1.2-1.1 1.6zM68.2 82.3l16.7-11.5c-.5-.5-.8-1-1.1-1.7L67.1 80.6c.5.5.8 1 1.1 1.7z"/></svg>