<svg xmlns="http://www.w3.org/2000/svg" width="152" height="152"><path fill="#5C5378" d="M862.5 96.5h19.9v5.7h-19.9z" opacity=".7"/><g fill="#5C5378"><path d="M240.2 59.5c-9.1 0-16.5 7.4-16.5 16.5s7.4 16.5 16.5 16.5 16.5-7.4 16.5-16.5-7.4-16.5-16.5-16.5zm0 31.2c-8.1 0-14.7-6.6-14.7-14.7s6.6-14.7 14.7-14.7 14.7 6.6 14.7 14.7-6.6 14.7-14.7 14.7zM232.5 5.1c-3.5-3.5-9.4-3.4-13.1.4-3.7 3.7-3.9 9.6-.4 13.1s9.4 3.4 13.1-.4c3.7-3.8 3.9-9.6.4-13.1zm-1.8 11.7c-2.7 2.7-7.2 2.7-9.9 0s-2.7-7.2 0-9.9 7.2-2.7 9.9 0 2.7 7.1 0 9.9zM260.1 22.6c5.2 14.3 8.1 33.2 8.1 53.4 0 31.6-7.4 60.2-18.3 71.1-3.2 3.2-6.6 4.9-10.2 4.9-16 0-28.5-33.4-28.5-76 0-23 3.9-44.4 10.3-58.6.5.4 1.1.7 1.7 1-6.2 13.8-10 34.9-10 57.6 0 40.8 11.9 74 26.5 74 3 0 5.9-1.4 8.8-4.3 10.6-10.6 17.7-38.6 17.7-69.7 0-19.9-2.8-38.6-8-52.7C253.3 9.8 246.5 2 239.8 2c-3 0-5.9 1.4-8.8 4.3-.2.2-.3.3-.5.5-.5-.5-1.1-.9-1.6-1.2.2-.3.5-.5.7-.7 3.2-3.2 6.6-4.9 10.2-4.9 7.7 0 15 8 20.3 22.6zM182.7 55.1c-3.5-3.5-9.4-3.4-13.1.4-3.7 3.7-3.9 9.6-.4 13.1s9.4 3.4 13.1-.4 3.9-9.6.4-13.1zM181 66.7c-2.7 2.7-7.2 2.7-9.9 0s-2.7-7.2 0-9.9 7.2-2.7 9.9 0 2.7 7.2 0 9.9zM186.8 96.2c14.3 5.2 33.2 8.1 53.4 8.1 31.6 0 60.2-7.4 71.1-18.3 3.2-3.2 4.9-6.6 4.9-10.2 0-16-33.4-28.5-76-28.5-23 0-44.4 3.9-58.6 10.3.4.5.7 1.1 1 1.7 13.8-6.2 34.9-10 57.6-10 40.8 0 74 11.9 74 26.5 0 3-1.4 5.9-4.3 8.8-10.6 10.6-38.6 17.7-69.7 17.7-19.9 0-38.6-2.8-52.7-8-13.5-5-21.3-11.7-21.3-18.5 0-3 1.4-5.9 4.3-8.8.2-.2.3-.3.5-.5-.5-.5-.9-1.1-1.2-1.6-.3.2-.5.5-.7.7-3.2 3.2-4.9 6.6-4.9 10.2 0 7.8 8 15 22.6 20.4zM295.8 120.7c5 0 9-4.3 9-9.5s-4-9.5-9-9.5-9 4.3-9 9.5 4 9.5 9 9.5zm-7-9.6c0-3.9 3.1-7 7-7s7 3.1 7 7-3.1 7-7 7-7-3.1-7-7zM263.8 127.9c-13.8-6.4-29.2-17.8-43.5-32C198 73.5 183 48.1 183 32.6c0-4.6 1.3-8.1 3.8-10.6 11.3-11.3 43.8 3.5 73.9 33.6 16.3 16.3 28.6 34.2 34.2 48.7-.7.1-1.3.3-1.9.6-5.5-14.3-17.7-31.9-33.8-47.9-28.9-28.9-60.7-43.9-71.1-33.6-2.1 2.1-3.2 5.2-3.2 9.2 0 15 14.8 39.9 36.8 61.9 14.1 14.1 29.3 25.3 42.9 31.6 13.1 6.1 23.4 6.8 28.2 2 2.1-2.1 3.2-5.2 3.2-9.2 0-.2 0-.5 0-.7.7 0 1.4-.1 2-.3 0 .3 0 .7 0 1 0 4.6-1.3 8.1-3.8 10.6-5.5 5.4-16.3 4.9-30.4-1.6zM295.6 50.1c5 0 9-4.3 9-9.5s-4-9.5-9-9.5-9 4.3-9 9.5 4.1 9.5 9 9.5zm-7-9.4c0-3.9 3.1-7 7-7s7 3.1 7 7-3.1 7-7 7c-3.8 0-7-3.1-7-7zM263.7 24c-13.8 6.4-29.2 17.8-43.5 32-22.3 22.3-37.3 47.8-37.3 63.3 0 4.6 1.3 8.1 3.8 10.6 11.3 11.3 43.8-3.5 73.9-33.6 16.3-16.3 28.6-34.2 34.2-48.7-.7-.1-1.3-.3-1.9-.6-5.4 14.2-17.6 31.8-33.7 47.8-28.9 28.9-60.7 43.9-71.1 33.6-2.1-2.1-3.2-5.2-3.2-9.2 0-15 14.8-39.9 36.8-61.9C235.8 43.2 251 32 264.6 25.7c13.1-6.1 23.4-6.8 28.2-2 2.1 2.1 3.2 5.2 3.2 9.2 0 .2 0 .5 0 .7.7 0 1.4.1 2 .3 0-.3 0-.7 0-1 0-4.6-1.3-8.1-3.8-10.6-5.6-5.4-16.4-4.8-30.5 1.7z"/></g><path fill="#5C5378" d="M555 91.4c-3.8 0-6.9-3.1-6.9-6.9s3.1-6.9 6.9-6.9 6.9 3.1 6.9 6.9-3.1 6.9-6.9 6.9zm0-11.8c-2.7 0-4.9 2.2-4.9 4.9s2.2 4.9 4.9 4.9 4.9-2.2 4.9-4.9-2.2-4.9-4.9-4.9zM526.9 140c-3.8 0-6.9-3.1-6.9-6.9s3.1-6.9 6.9-6.9 6.9 3.1 6.9 6.9-3.1 6.9-6.9 6.9zm0-11.7c-2.7 0-4.9 2.2-4.9 4.9s2.2 4.9 4.9 4.9 4.9-2.2 4.9-4.9-2.2-4.9-4.9-4.9zM498.8 120.7c-3.8 0-6.9-3.1-6.9-6.9s3.1-6.9 6.9-6.9 6.9 3.1 6.9 6.9-3.1 6.9-6.9 6.9zm0-11.8c-2.7 0-4.9 2.2-4.9 4.9s2.2 4.9 4.9 4.9 4.9-2.2 4.9-4.9-2.2-4.9-4.9-4.9zM498.8 91.4c-3.8 0-6.9-3.1-6.9-6.9s3.1-6.9 6.9-6.9 6.9 3.1 6.9 6.9-3.1 6.9-6.9 6.9zm0-11.8c-2.7 0-4.9 2.2-4.9 4.9s2.2 4.9 4.9 4.9 4.9-2.2 4.9-4.9-2.2-4.9-4.9-4.9zM583.1 140c-3.8 0-6.9-3.1-6.9-6.9s3.1-6.9 6.9-6.9 6.9 3.1 6.9 6.9-3.2 6.9-6.9 6.9zm0-11.7c-2.7 0-4.9 2.2-4.9 4.9s2.2 4.9 4.9 4.9 4.9-2.2 4.9-4.9-2.3-4.9-4.9-4.9zM526.9 72.1c-3.8 0-6.9-3.1-6.9-6.9 0-3.8 3.1-6.9 6.9-6.9s6.9 3.1 6.9 6.9c0 3.8-3.1 6.9-6.9 6.9zm0-11.8c-2.7 0-4.9 2.2-4.9 4.9s2.2 4.9 4.9 4.9 4.9-2.2 4.9-4.9-2.2-4.9-4.9-4.9zM550.8 80.4l-18.6-12.8c-.3.6-.7 1.2-1.1 1.6L549.7 82c.3-.6.6-1.1 1.1-1.6zM555 120.7c-3.8 0-6.9-3.1-6.9-6.9s3.1-6.9 6.9-6.9 6.9 3.1 6.9 6.9-3.1 6.9-6.9 6.9zm0-11.8c-2.7 0-4.9 2.2-4.9 4.9s2.2 4.9 4.9 4.9 4.9-2.2 4.9-4.9-2.2-4.9-4.9-4.9zM498.9 90.2c-.4 0-.8 0-1.1-.1v18c.3-.1.7-.1 1-.1s.7 0 1 .1v-18c-.3.1-.6.1-.9.1zM504.2 82l18.5-12.7c-.5-.5-.8-1-1.1-1.6L503 80.4c.5.5.9 1 1.2 1.6zM554.9 108c.4 0 .7 0 1.1.1v-18c-.4.1-.7.1-1.1.1-.3 0-.6 0-.9-.1V108c.3.1.6 0 .9 0zM532.1 130.7l18.7-12.8c-.5-.5-.9-1-1.1-1.6L531 129.1c.5.5.9 1 1.1 1.6zM522.8 129.1L504 116.2c-.3.6-.7 1.2-1.1 1.6l18.7 12.9c.3-.6.7-1.1 1.2-1.6zM579 129.1l-18.8-12.9c-.3.6-.7 1.2-1.1 1.7l18.8 12.9c.2-.7.6-1.2 1.1-1.7zM580.9 59.9c3.8 0 6.9 3.1 6.9 6.9 0 3.8-3.1 6.9-6.9 6.9s-6.9-3.1-6.9-6.9c.1-3.8 3.1-6.9 6.9-6.9zm0 11.8c2.7 0 4.9-2.2 4.9-4.9s-2.2-4.9-4.9-4.9-4.9 2.2-4.9 4.9 2.2 4.9 4.9 4.9zM609 11.3c3.8 0 6.9 3.1 6.9 6.9s-3.1 6.9-6.9 6.9-6.9-3.1-6.9-6.9 3.1-6.9 6.9-6.9zm0 11.8c2.7 0 4.9-2.2 4.9-4.9s-2.2-4.9-4.9-4.9-4.9 2.2-4.9 4.9 2.2 4.9 4.9 4.9zM637.1 30.6c3.8 0 6.9 3.1 6.9 6.9s-3.1 6.9-6.9 6.9-6.9-3.1-6.9-6.9 3.1-6.9 6.9-6.9zm0 11.8c2.7 0 4.9-2.2 4.9-4.9s-2.2-4.9-4.9-4.9-4.9 2.2-4.9 4.9 2.2 4.9 4.9 4.9zM637.1 59.9c3.8 0 6.9 3.1 6.9 6.9 0 3.8-3.1 6.9-6.9 6.9s-6.9-3.1-6.9-6.9c0-3.8 3.1-6.9 6.9-6.9zm0 11.8c2.7 0 4.9-2.2 4.9-4.9s-2.2-4.9-4.9-4.9-4.9 2.2-4.9 4.9 2.2 4.9 4.9 4.9zM552.8 11.3c3.8 0 6.9 3.1 6.9 6.9s-3.1 6.9-6.9 6.9-6.8-3.1-6.8-6.9 3-6.9 6.8-6.9zm0 11.8c2.7 0 4.9-2.2 4.9-4.9s-2.2-4.9-4.9-4.9-4.9 2.2-4.9 4.9 2.3 4.9 4.9 4.9zM609 79.3c3.8 0 6.9 3.1 6.9 6.9S612.8 93 609 93s-6.9-3.1-6.9-6.9 3.1-6.8 6.9-6.8zm0 11.7c2.7 0 4.9-2.2 4.9-4.9s-2.2-4.9-4.9-4.9-4.9 2.2-4.9 4.9 2.2 4.9 4.9 4.9zM585.1 70.9l18.6 12.8c.3-.6.7-1.2 1.1-1.6l-18.6-12.8c-.3.6-.6 1.1-1.1 1.6zM580.9 30.6c3.8 0 6.9 3.1 6.9 6.9s-3.1 6.9-6.9 6.9-6.9-3.1-6.9-6.9 3.1-6.9 6.9-6.9zm0 11.8c2.7 0 4.9-2.2 4.9-4.9s-2.2-4.9-4.9-4.9-4.9 2.2-4.9 4.9 2.2 4.9 4.9 4.9zM637 61.1c.4 0 .8 0 1.1.1v-18c-.3.1-.7.1-1 .1s-.7 0-1-.1v18c.3-.1.6-.1.9-.1zM631.7 69.3L613.2 82c.5.5.8 1 1.1 1.6l18.5-12.8c-.4-.3-.8-.9-1.1-1.5zM581 43.3c-.4 0-.7 0-1.1-.1v18c.4-.1.7-.1 1.1-.1.3 0 .6 0 .9.1v-18c-.3 0-.6.1-.9.1zM603.8 20.6l-18.7 12.8c.5.5.9 1 1.1 1.6l18.7-12.8c-.5-.4-.9-1-1.1-1.6zM613.1 22.2l18.7 12.9c.3-.6.7-1.2 1.1-1.6l-18.7-12.9c-.2.6-.6 1.2-1.1 1.6zM556.9 22.2l18.8 12.9c.3-.6.7-1.2 1.1-1.7L558 20.5c-.2.7-.6 1.3-1.1 1.7zM560.2 82.3l16.7-11.5c-.5-.5-.8-1-1.1-1.7l-16.7 11.5c.4.5.8 1 1.1 1.7zM360.2 109c-.3.6-.7 1.1-1.1 1.6l34.6 23.8c.3-.6.7-1.1 1.1-1.6L360.2 109zM403.3 24.4c-6.6 0-12-5.4-12-12s5.4-12 12-12 12 5.4 12 12-5.4 12-12 12zm0-22c-5.5 0-10 4.5-10 10s4.5 10 10 10 10-4.5 10-10-4.5-10-10-10zM456 60.6c-6.6 0-12-5.4-12-12s5.4-12 12-12 12 5.4 12 12-5.4 12-12 12zm0-22c-5.5 0-10 4.5-10 10s4.5 10 10 10 10-4.5 10-10-4.5-10-10-10zM456 115.6c-6.6 0-12-5.4-12-12s5.4-12 12-12 12 5.4 12 12-5.4 12-12 12zm0-22c-5.5 0-10 4.5-10 10s4.5 10 10 10 10-4.5 10-10-4.5-10-10-10zM350.6 115.6c-6.6 0-12-5.4-12-12s5.4-12 12-12 12 5.4 12 12-5.4 12-12 12zm0-22c-5.5 0-10 4.5-10 10s4.5 10 10 10 10-4.5 10-10-4.5-10-10-10zM350.6 60.6c-6.6 0-12-5.4-12-12s5.4-12 12-12 12 5.4 12 12-5.4 12-12 12zm0-22c-5.5 0-10 4.5-10 10s4.5 10 10 10 10-4.5 10-10-4.5-10-10-10zM403.3 151.8c-6.6 0-12-5.4-12-12s5.4-12 12-12 12 5.4 12 12-5.4 12-12 12zm0-22c-5.5 0-10 4.5-10 10s4.5 10 10 10 10-4.5 10-10-4.5-10-10-10zM350.6 59.6c-.3 0-.7 0-1-.1v33.1c.3 0 .7-.1 1-.1s.7 0 1 .1v-33c-.3 0-.7 0-1 0zM394.1 17.5l-35 24.1c.4.5.8 1.1 1.1 1.6l35-24.1c-.4-.4-.8-1-1.1-1.6zM447.5 41.6l-34.2-23.5c-.3.6-.7 1.1-1.2 1.6l34.3 23.6c.3-.7.7-1.2 1.1-1.7zM455.9 92.6c.3 0 .7 0 1 .1V59.6c-.3 0-.7.1-1 .1-.3 0-.7 0-1-.1v33.1c.4-.1.7-.1 1-.1zM446.4 109l-34.6 23.8c.4.5.8 1.1 1.1 1.6l34.6-23.8c-.4-.5-.8-1-1.1-1.6zM806 33H658V11h148v22zm-146-2h144V13H660v18zM730 60h-72V38h72v22zm-70-2h68V40h-68v18zM806 60h-72V38h72v22zm-70-2h68V40h-68v18zM692 87h-34V65h34v22zm-32-2h30V67h-30v18zM704.7 114H658V92h46.7v22zm-44.7-2h42.7V94H660v18zM755.3 114h-46.7V92h46.7v22zm-44.6-2h42.7V94h-42.7v18zM806 113.8h-46.7v-22H806v22zm-44.7-2H804v-18h-42.7v18zM730 87h-34V65h34v22zm-32-2h30V67h-30v18zM768 87h-34V65h34v22zm-32-2h30V67h-30v18zM806 87h-34V65h34v22zm-32-2h30V67h-30v18zM768 140.9H658v-22h110v22zm-108-2h106v-18H660v18zM806 141h-34v-22h34v22zm-32-2h30v-18h-30v18z"/><path fill="#5C5378" d="M937.1 73.1H969v68.1h-31.9z" opacity=".25"/><path fill="#5C5378" d="M847.8 11h100.6v8.4H847.8z" opacity=".7"/><path fill="#5C5378" d="M833.3 23h129.6v2.8H833.3z" opacity=".3"/><path fill="#5C5378" d="M862.6 74.5h38.8v2.8h-38.8zM939.6 76.5h26.8v2.8h-26.8z" opacity=".7"/><path fill="#5C5378" d="M843.6 27h109v2.8h-109zM862.5 79.5h65.3v2.8h-65.3zM939.5 81.5h26.9v2.8h-26.9zM939.5 85.5h26.9v2.8h-26.9zM939.5 89.5h14.9v2.8h-14.9z" opacity=".3"/><path fill="#5C5378" d="M939.6 98.5h26.8v2.8h-26.8z" opacity=".7"/><path fill="#5C5378" d="M939.5 103.5h26.9v2.8h-26.9zM939.5 107.5h26.9v2.8h-26.9zM939.5 111.5h14.9v2.8h-14.9zM862.5 83.5h65.3v2.8h-65.3zM862.5 87.5h65.3v2.8h-65.3zM862.5 91.5h43.2v2.8h-43.2z" opacity=".3"/><path fill="#5C5378" d="M825 72.1h31.5v31.5H825zM821 34.9h152v31.5H821z"/><path fill="#5C5378" d="M862.5 134.1h19.9v5.7h-19.9zM862.6 112.1h38.8v2.8h-38.8z" opacity=".7"/><path fill="#5C5378" d="M862.5 117.1h65.3v2.8h-65.3zM862.5 121.1h65.3v2.8h-65.3zM862.5 125.1h65.3v2.8h-65.3zM862.5 129.1h43.2v2.8h-43.2z" opacity=".3"/><path fill="#F4F9ED" d="M865.9 135.8H879v2.2h-13.1z" opacity=".3"/><path fill="#5C5378" d="M939.5 131.1h26.9v5.7h-26.9z" opacity=".7"/><path fill="#F4F9ED" d="M944.1 132.8h17.6v2.2h-17.6zM865.9 98.3H879v2.2h-13.1z" opacity=".3"/><path fill="#5C5378" d="M825 109.8h31.5v31.5H825zM25.8 143.6c-2.9 0-7.2-4.3-9.5-6.9-2.8-2.5-7.3-7-6.8-10 .4-2.7 2.2-4.4 6.7-8.6 1.4-1.3 3.1-2.9 5-4.8 8.1-7.9 62.9-58.3 63.4-58.8.2-.1 2.6-2.1 2.1-6.6-.9-8.7.3-15.5 3.8-20.8 4.1-6.4 12.6-13.2 24.1-13.2 1.8 0 3.7.2 5.5.5l1.5.3-10.7 16.1L122.1 42l16.1-10.7.3 1.5c2.6 14.1-5.2 24.8-12.7 29.6-4.2 2.7-9.4 4-15.5 4-1.7 0-3.4-.1-5.3-.3-4.5-.5-6.5 1.9-6.6 2-.6.6-51 55.4-58.8 63.5-1.9 2-3.5 3.7-4.8 5-4.2 4.5-5.9 6.3-8.6 6.7-.1.3-.2.3-.4.3zM114.6 16c-10.7 0-18.6 6.4-22.4 12.3-3.2 4.9-4.3 11.3-3.4 19.5.6 5.7-2.7 8.3-2.8 8.4-.5.4-55.2 50.8-63.3 58.7-2 1.9-3.7 3.5-5.1 4.8-4.2 4-5.8 5.5-6.1 7.4-.2 1.4 2.4 4.7 6.2 8.2l.1.1c3.4 3.7 6.6 6.3 8.1 6.3 0 0 .1 0 .1 0 2-.3 3.5-1.9 7.4-6.1 1.3-1.4 2.9-3.1 4.8-5.1 7.8-8.1 58.2-62.8 58.7-63.4 0 0 2.2-2.8 6.9-2.8.4 0 .9 0 1.4.1 1.8.2 3.5.3 5.1.3 5.7 0 10.6-1.3 14.4-3.7 6.7-4.3 13.7-13.7 12.1-26.1l-14.9 9.9-13.5-13.5 9.9-14.9c-1.3-.4-2.5-.4-3.7-.4zM25.4 132.8c-1.4 0-2.7-.5-3.7-1.5-2-2-2-5.4 0-7.4 1-1 2.3-1.5 3.7-1.5s2.7.5 3.7 1.5c2 2 2 5.4 0 7.4-1 1-2.3 1.5-3.7 1.5zm0-8.5c-.9 0-1.7.3-2.3 1-1.3 1.3-1.3 3.3 0 4.6 1.2 1.2 3.4 1.2 4.6 0 1.3-1.3 1.3-3.3 0-4.6-.6-.6-1.4-1-2.3-1z"/><path d="M14.3-540.3v-185.9h5.6l1.3 12.9v11.9h-4.5v80.9s8.5.5 8.5 6.6 0 66.9 0 66.9-.7 9.1-10.9 6.7z"/><path fill="none" stroke="#5C5378" stroke-width="2" stroke-miterlimit="10" d="M396.6-660.5v-80.9h4.5v-11.9l-1.3-12.9h-11.2l-1.3 12.9v11.9h4.5v80.9s-8.5.5-8.5 6.6 0 66.9 0 66.9.6 9.1 10.9 6.8c10.3 2.4 10.9-6.8 10.9-6.8s0-60.8 0-66.9-8.5-6.6-8.5-6.6z"/><path d="M355.7-157.1s-.8-10.1 1.8-12c2.6-1.9 6-1.2 17.8-1 11.8.2 89.7 3.4 89.7 3.4s3.8.5 7.3-3.7c3.4-4.2 9.3-10.4 17.4-12.1 8.2-1.8 21.6-.3 30 12l-19 3.8v9.3l-145 .3z"/><path fill="#5C5378" d="M25.8 143.6c-2.9 0-7.2-4.3-9.5-6.9-2.8-2.5-7.3-7-6.8-10 .4-2.7 2.2-4.4 6.7-8.6 1.4-1.3 3.1-2.9 5-4.8 8.1-7.9 62.9-58.3 63.4-58.8.2-.1 2.6-2.1 2.1-6.6-.9-8.7.3-15.5 3.8-20.8 4.1-6.4 12.6-13.2 24.1-13.2 1.8 0 3.7.2 5.5.5l1.5.3-10.7 16.1L122.1 42l16.1-10.7.3 1.5c2.6 14.1-5.2 24.8-12.7 29.6-4.2 2.7-9.4 4-15.5 4-1.7 0-3.4-.1-5.3-.3-4.5-.5-6.5 1.9-6.6 2-.6.6-51 55.4-58.8 63.5-1.9 2-3.5 3.7-4.8 5-4.2 4.5-5.9 6.3-8.6 6.7-.1.3-.2.3-.4.3zM114.6 16c-10.7 0-18.6 6.4-22.4 12.3-3.2 4.9-4.3 11.3-3.4 19.5.6 5.7-2.7 8.3-2.8 8.4-.5.4-55.2 50.8-63.3 58.7-2 1.9-3.7 3.5-5.1 4.8-4.2 4-5.8 5.5-6.1 7.4-.2 1.4 2.4 4.7 6.2 8.2l.1.1c3.4 3.7 6.6 6.3 8.1 6.3 0 0 .1 0 .1 0 2-.3 3.5-1.9 7.4-6.1 1.3-1.4 2.9-3.1 4.8-5.1 7.8-8.1 58.2-62.8 58.7-63.4 0 0 2.2-2.8 6.9-2.8.4 0 .9 0 1.4.1 1.8.2 3.5.3 5.1.3 5.7 0 10.6-1.3 14.4-3.7 6.7-4.3 13.7-13.7 12.1-26.1l-14.9 9.9-13.5-13.5 9.9-14.9c-1.3-.4-2.5-.4-3.7-.4zM25.4 132.8c-1.4 0-2.7-.5-3.7-1.5-2-2-2-5.4 0-7.4 1-1 2.3-1.5 3.7-1.5s2.7.5 3.7 1.5c2 2 2 5.4 0 7.4-1 1-2.3 1.5-3.7 1.5zm0-8.5c-.9 0-1.7.3-2.3 1-1.3 1.3-1.3 3.3 0 4.6 1.2 1.2 3.4 1.2 4.6 0 1.3-1.3 1.3-3.3 0-4.6-.6-.6-1.4-1-2.3-1z"/><g fill="#5C5378"><path d="M67.8 72.8L34.3 39.3l-2.8 2.8-8.1-8.1-7.9-9.6 8.3-8.3 9.6 7.9 8.2 8.2-2.8 2.8 33.7 33.7-4.7 4.1zM34.3 36.5L67.9 70l1.6-1.5-33.6-33.6 2.8-2.8-6.7-6.8-8.1-6.6-5.8 5.8 6.7 8.2 6.7 6.7 2.8-2.9zM130.5 142.8c-3 0-5.2-1.9-5.3-2l-42-42c-3.2-3.2-1.3-7.7.5-10.1l-3.5-3.5 4.2-4.6 3.7 3.7c1.1-.8 3.5-2.3 6-2.3 1.6 0 3 .6 4.2 1.7l41.9 41.9c.1.2 2.5 2.9 2 6.4-.3 2.3-1.9 4.4-4.5 6.1-2.6 3.9-5.3 4.7-7.2 4.7zm-4-3.5s1.8 1.5 4 1.5c2.1 0 3.9-1.3 5.5-3.9l.1-.2.2-.1c2.3-1.4 3.5-3 3.8-4.8.4-2.6-1.4-4.7-1.5-4.7l-41.8-42c-.8-.7-1.7-1.1-2.7-1.1-2.7 0-5.3 2.3-5.4 2.4l-.7.6-3.5-3.5-1.5 1.6 3.4 3.4-.6.7c-.2.2-4.3 5-1.2 8.1l41.9 42z"/></g></svg>