<svg xmlns="http://www.w3.org/2000/svg" width="153" height="153"><style type="text/css">.st0{fill:none;stroke:#D2D2D2;stroke-miterlimit:10;} .st1{fill:#5D5479;} .st2{fill:#FFFFFF;stroke:#D2D2D2;stroke-miterlimit:10;} .st3{fill:none;stroke:#5D5479;stroke-width:2;stroke-miterlimit:10;} .st4{fill:none;stroke:#5D5479;stroke-miterlimit:10;} .st5{opacity:0.7;fill:#5D5479;enable-background:new ;} .st6{opacity:0.25;fill:#5D5479;enable-background:new ;} .st7{opacity:0.3;fill:#5D5479;enable-background:new ;} .st8{opacity:0.3;fill:#F4F9EE;enable-background:new ;} .st9{fill:#0A82C5;} .st10{fill:#C03527;} .st11{fill:#5B5377;} .st12{fill:#5D5D5D;} .st13{fill:#ADADAD;} .st14{fill:#DCDBDB;} .st15{fill:#F4F4F4;} .st16{display:none;fill:none;} .st17{fill:#5C5D5D;} .st18{fill:#1A1A1B;} .st19{fill:#ECECEC;} .st20{fill:#464646;} .st21{fill:none;stroke:#ECECEC;stroke-miterlimit:10;} .st22{fill:#272626;} .st23{fill:#FFFFFF;}</style><path d="M42 96.8h19.9v5.7H42z" class="st5"/><path d="M116.6 73.4h31.9v68.1h-31.9z" class="st6"/><path d="M27.3 11.3h100.6v8.4H27.3z" class="st5"/><path d="M12.8 23.3h129.6v2.8H12.8z" class="st7"/><path d="M42.1 74.8h38.8v2.8H42.1zM119.1 76.8h26.8v2.8h-26.8z" class="st5"/><path d="M23.1 27.3h109v2.8h-109zM42 79.8h65.3v2.8H42zM119 81.8h26.9v2.8H119zM119 85.8h26.9v2.8H119zM119 89.8h14.9v2.8H119z" class="st7"/><path d="M119.1 98.8h26.8v2.8h-26.8z" class="st5"/><path d="M119 103.8h26.9v2.8H119zM119 107.8h26.9v2.8H119zM119 111.8h14.9v2.8H119zM42 83.8h65.3v2.8H42zM42 87.8h65.3v2.8H42zM42 91.8h43.2v2.8H42z" class="st7"/><path d="M4.5 72.4H36v31.5H4.5zM.5 35.3h152v31.5H.5z" class="st1"/><path d="M42 134.5h19.9v5.7H42zM42.1 112.4h38.8v2.8H42.1z" class="st5"/><path d="M42 117.4h65.3v2.8H42zM42 121.4h65.3v2.8H42zM42 125.4h65.3v2.8H42zM42 129.5h43.2v2.8H42z" class="st7"/><path d="M45.4 136.1h13.1v2.2H45.4z" class="st8"/><path d="M119 131.5h26.9v5.7H119z" class="st5"/><path d="M123.6 133.1h17.6v2.2h-17.6zM45.4 98.7h13.1v2.2H45.4z" class="st8"/><path d="M4.5 110.2H36v31.5H4.5z" class="st1"/></svg>