<svg xmlns="http://www.w3.org/2000/svg" width="153" height="153"><style type="text/css">.st0{fill:none;stroke:#D2D2D2;stroke-miterlimit:10;} .st1{fill:#5D5479;} .st2{fill:#FFFFFF;stroke:#D2D2D2;stroke-miterlimit:10;} .st3{fill:none;stroke:#5D5479;stroke-width:2;stroke-miterlimit:10;} .st4{fill:none;stroke:#5D5479;stroke-miterlimit:10;} .st5{opacity:0.7;fill:#5D5479;enable-background:new ;} .st6{opacity:0.25;fill:#5D5479;enable-background:new ;} .st7{opacity:0.3;fill:#5D5479;enable-background:new ;} .st8{opacity:0.3;fill:#F4F9EE;enable-background:new ;} .st9{fill:#0A82C5;} .st10{fill:#C03527;} .st11{fill:#5B5377;} .st12{fill:#5D5D5D;} .st13{fill:#ADADAD;} .st14{fill:#DCDBDB;} .st15{fill:#F4F4F4;} .st16{display:none;fill:none;} .st17{fill:#5C5D5D;} .st18{fill:#1A1A1B;} .st19{fill:#ECECEC;} .st20{fill:#464646;} .st21{fill:none;stroke:#ECECEC;stroke-miterlimit:10;} .st22{fill:#272626;} .st23{fill:#FFFFFF;}</style><path d="M76.5 149.5c-40.2 0-73-32.7-73-73s32.7-73 73-73 73 32.7 73 73-32.8 73-73 73zm0-144c-39.1 0-71 31.8-71 71s31.8 71 71 71 71-31.8 71-71-31.9-71-71-71zM25.8 119.5l-.2-.3c-10-12-15.6-27.1-15.6-42.7C10 39.8 39.8 10 76.5 10S143 39.8 143 76.5c0 15.5-5.5 30.7-15.5 42.6l-.2.3-.3-.1c-7-2.9-22.9-8.4-32.1-11.1-1.3-.4-1.3-.9-1.3-4.2 0-2.9 1.2-5.8 2.3-8.3 1.1-2.4 2.6-6.8 3.1-10.8v-.1l.1-.1c1.4-1.7 3.4-4.9 4.6-11.2 1.1-5.5.6-7.4-.1-9.3 0-.1-.1-.2-.1-.2-.1-.2-.1-.3-.1-.4-.3-1.4.1-8.2 1.1-13.6.6-3.5-.2-11.1-5.1-17.4-3.1-4-9-8.8-19.9-9.5h-6c-10.6.7-16.6 5.5-19.7 9.5-4.9 6.3-5.7 13.8-5.1 17.3 1 5.4 1.4 12.2 1.1 13.6-.1.2-.1.3-.2.5l-.1.2c-.7 1.9-1.2 3.9-.1 9.3 1.3 6.3 3.2 9.5 4.6 11.2l.1.1v.1c.5 3.8 1.9 8.2 3.1 10.8.9 2 1.4 4.6 1.4 8.4 0 3.3-.1 3.8-1.2 4.2-9.9 2.9-25.2 8.4-31.2 11.1l-.4.1zM76.5 11C40.4 11 11 40.4 11 76.5c0 15.2 5.4 30 15.1 41.8 6.3-2.7 21.2-8.1 31-10.9.4-.1.5-.2.5-3.2 0-3.6-.4-6.1-1.3-8-1.1-2.5-2.6-6.8-3.2-10.9-1.5-1.8-3.4-5.2-4.7-11.5-1.2-5.7-.6-7.8.2-9.8l.1-.2c0-.1.1-.2.1-.4.2-1.1-.1-7.8-1.1-13.2-.6-3.8.2-11.7 5.3-18.2 3.2-4.1 9.4-9.2 20.4-9.9h6.1c11.3.7 17.4 5.8 20.6 9.9 5.1 6.5 5.9 14.4 5.3 18.1-1 5.4-1.3 12.1-1.1 13.2 0 .1.1.2.1.3 0 .1.1.2.1.3.8 2 1.3 4.1.2 9.8-1.2 6.3-3.2 9.7-4.7 11.5-.6 4.1-2 8.4-3.2 10.9-1.1 2.3-2.2 5.1-2.2 7.8 0 3.1.1 3.1.6 3.2 9.1 2.7 24.6 8.1 31.8 11 9.7-11.7 15-26.5 15-41.7 0-36-29.4-65.4-65.5-65.4z" class="st1"/></svg>