<?xml version="1.0" encoding="utf-8"?>
<!-- Generator: Adobe Illustrator 18.1.1, SVG Export Plug-In . SVG Version: 6.00 Build 0)  -->
<!DOCTYPE svg PUBLIC "-//W3C//DTD SVG 1.1//EN" "http://www.w3.org/Graphics/SVG/1.1/DTD/svg11.dtd">
<svg version="1.1" id="Layer_1" xmlns="http://www.w3.org/2000/svg" xmlns:xlink="http://www.w3.org/1999/xlink" x="0px" y="0px"
	 width="152px" height="152px" viewBox="0 0 152 152" enable-background="new 0 0 152 152" xml:space="preserve">
<g>
	<path fill="#5C5378" d="M76,59.5c-9.1,0-16.5,7.4-16.5,16.5c0,9.1,7.4,16.5,16.5,16.5S92.5,85.1,92.5,76
		C92.5,66.9,85.1,59.5,76,59.5z M76,90.7c-8.1,0-14.7-6.6-14.7-14.7c0-8.1,6.6-14.7,14.7-14.7S90.7,67.9,90.7,76
		C90.7,84.1,84.1,90.7,76,90.7z"/>
	<g>
		<path fill="#5C5378" d="M68.3,5.1c-3.5-3.5-9.4-3.4-13.1,0.4c-3.7,3.7-3.9,9.6-0.4,13.1c3.5,3.5,9.4,3.4,13.1-0.4
			C71.6,14.4,71.8,8.6,68.3,5.1z M66.5,16.8c-2.7,2.7-7.2,2.7-9.9,0c-2.7-2.7-2.7-7.2,0-9.9c2.7-2.7,7.2-2.7,9.9,0
			C69.2,9.6,69.2,14,66.5,16.8z"/>
		<path fill="#5C5378" d="M96,22.6c5.2,14.3,8.1,33.2,8.1,53.4c0,31.6-7.4,60.2-18.3,71.1c-3.2,3.2-6.6,4.9-10.2,4.9
			c-16,0-28.5-33.4-28.5-76c0-23,3.9-44.4,10.3-58.6c0.5,0.4,1.1,0.7,1.7,1c-6.2,13.8-10,34.9-10,57.6c0,40.8,11.9,74,26.5,74
			c3,0,5.9-1.4,8.8-4.3c10.6-10.6,17.7-38.6,17.7-69.7c0-19.9-2.8-38.6-8-52.7C89.1,9.8,82.4,2,75.6,2c-3,0-5.9,1.4-8.8,4.3
			c-0.2,0.2-0.3,0.3-0.5,0.5c-0.5-0.5-1.1-0.9-1.6-1.2c0.2-0.3,0.5-0.5,0.7-0.7C68.6,1.6,72,0,75.6,0C83.4,0,90.6,8,96,22.6z"/>
	</g>
	<g>
		<path fill="#5C5378" d="M18.5,55.1c-3.5-3.5-9.4-3.4-13.1,0.4C1.7,59.1,1.6,65,5.1,68.5s9.4,3.4,13.1-0.4S22,58.6,18.5,55.1z
			 M16.8,66.7c-2.7,2.7-7.2,2.7-9.9,0c-2.7-2.7-2.7-7.2,0-9.9c2.7-2.7,7.2-2.7,9.9,0C19.5,59.5,19.5,64,16.8,66.7z"/>
		<path fill="#5C5378" d="M22.6,96.2c14.3,5.2,33.2,8.1,53.4,8.1c31.6,0,60.2-7.4,71.1-18.3c3.2-3.2,4.9-6.6,4.9-10.2
			c0-16-33.4-28.5-76-28.5c-23,0-44.4,3.9-58.6,10.3c0.4,0.5,0.7,1.1,1,1.7c13.8-6.2,34.9-10,57.6-10c40.8,0,74,11.9,74,26.5
			c0,3-1.4,5.9-4.3,8.8c-10.6,10.6-38.6,17.7-69.7,17.7c-19.9,0-38.6-2.8-52.7-8C9.8,89.3,2,82.6,2,75.8c0-3,1.4-5.9,4.3-8.8
			c0.2-0.2,0.3-0.3,0.5-0.5c-0.5-0.5-0.9-1.1-1.2-1.6c-0.3,0.2-0.5,0.5-0.7,0.7C1.6,68.8,0,72.3,0,75.8C0,83.6,8,90.8,22.6,96.2z"/>
	</g>
	<g>
		<path fill="#5C5378" d="M131.6,120.7c5,0,9-4.3,9-9.5c0-5.2-4-9.5-9-9.5c-5,0-9,4.3-9,9.5C122.6,116.4,126.6,120.7,131.6,120.7z
			 M124.6,111.1c0-3.9,3.1-7,7-7c3.9,0,7,3.1,7,7c0,3.9-3.1,7-7,7C127.7,118.1,124.6,115,124.6,111.1z"/>
		<path fill="#5C5378" d="M99.6,127.9c-13.8-6.4-29.2-17.8-43.5-32C33.8,73.5,18.8,48.1,18.8,32.6c0-4.6,1.3-8.1,3.8-10.6
			c11.3-11.3,43.8,3.5,73.9,33.6c16.3,16.3,28.6,34.2,34.2,48.7c-0.7,0.1-1.3,0.3-1.9,0.6C123.3,90.6,111.1,73,95,57
			C66.2,28.1,34.3,13,24,23.4c-2.1,2.1-3.2,5.2-3.2,9.2c0,15,14.8,39.9,36.8,61.9c14.1,14.1,29.3,25.3,42.9,31.6
			c13.1,6.1,23.4,6.8,28.2,2c2.1-2.1,3.2-5.2,3.2-9.2c0-0.2,0-0.5,0-0.7c0.7,0,1.4-0.1,2-0.3c0,0.3,0,0.7,0,1
			c0,4.6-1.3,8.1-3.8,10.6C124.5,134.9,113.7,134.4,99.6,127.9z"/>
	</g>
	<g>
		<path fill="#5C5378" d="M131.4,50.1c5,0,9-4.3,9-9.5c0-5.2-4-9.5-9-9.5c-5,0-9,4.3-9,9.5S126.5,50.1,131.4,50.1z M124.4,40.7
			c0-3.9,3.1-7,7-7c3.9,0,7,3.1,7,7c0,3.9-3.1,7-7,7C127.6,47.7,124.4,44.6,124.4,40.7z"/>
		<path fill="#5C5378" d="M99.5,24C85.7,30.4,70.2,41.7,56,56c-22.3,22.3-37.3,47.8-37.3,63.3c0,4.6,1.3,8.1,3.8,10.6
			c11.3,11.3,43.8-3.5,73.9-33.6c16.3-16.3,28.6-34.2,34.2-48.7c-0.7-0.1-1.3-0.3-1.9-0.6c-5.4,14.2-17.6,31.8-33.7,47.8
			c-28.9,28.9-60.7,43.9-71.1,33.6c-2.1-2.1-3.2-5.2-3.2-9.2c0-15,14.8-39.9,36.8-61.9c14.1-14.1,29.3-25.3,42.9-31.6
			c13.1-6.1,23.4-6.8,28.2-2c2.1,2.1,3.2,5.2,3.2,9.2c0,0.2,0,0.5,0,0.7c0.7,0,1.4,0.1,2,0.3c0-0.3,0-0.7,0-1
			c0-4.6-1.3-8.1-3.8-10.6C124.4,16.9,113.6,17.5,99.5,24z"/>
	</g>
</g>
</svg>
