<svg xmlns="http://www.w3.org/2000/svg" width="153" height="153"><style type="text/css">.st0{fill:none;stroke:#D2D2D2;stroke-miterlimit:10;} .st1{fill:#5D5479;} .st2{fill:#FFFFFF;stroke:#D2D2D2;stroke-miterlimit:10;} .st3{fill:none;stroke:#5D5479;stroke-width:2;stroke-miterlimit:10;} .st4{fill:none;stroke:#5D5479;stroke-miterlimit:10;} .st5{opacity:0.7;fill:#5D5479;enable-background:new ;} .st6{opacity:0.25;fill:#5D5479;enable-background:new ;} .st7{opacity:0.3;fill:#5D5479;enable-background:new ;} .st8{opacity:0.3;fill:#F4F9EE;enable-background:new ;} .st9{fill:#0A82C5;} .st10{fill:#C03527;} .st11{fill:#5B5377;} .st12{fill:#5D5D5D;} .st13{fill:#ADADAD;} .st14{fill:#DCDBDB;} .st15{fill:#F4F4F4;} .st16{display:none;fill:none;} .st17{fill:#5C5D5D;} .st18{fill:#1A1A1B;} .st19{fill:#ECECEC;} .st20{fill:#464646;} .st21{fill:none;stroke:#ECECEC;stroke-miterlimit:10;} .st22{fill:#272626;} .st23{fill:#FFFFFF;}</style><path d="M85.4 119.9H67.6V50.6h17.9v69.3zm-15.8-2h13.9V52.6H69.6v65.3zm15.8-76.7H67.6v-16h17.9v16zm-15.8-2h13.9v-12H69.6v12zM76.5 149.7c-40.3 0-73.2-32.8-73.2-73.2S36.2 3.3 76.5 3.3s73.2 32.8 73.2 73.2-32.9 73.2-73.2 73.2zm0-144.4c-39.2 0-71.2 32-71.2 71.2s31.9 71.2 71.2 71.2 71.2-31.9 71.2-71.2c0-39.2-32-71.2-71.2-71.2z" class="st1"/></svg>